# xmcd
#
# Track frame offsets:
# 150
# 16072
# 32162
# 49240
# 65620
# 81220
# 101487
# 118617
# 134155
# 148780
# 162552
#
# Disc length: 2506 seconds
#
#
# Revision: 0
# Processed by: cddbd v1.5.2PL0 Copyright (c) Steve Scherf et al.
# Submitted via: FreeRIP 2.945 
#
DISCID=9e09c80b
DTITLE=Lindomar - A Caminhada - Lindomar - A Caminhada
DYEAR=1900
DGENRE=Other
TTITLE0=Marcas do que se foi
TTITLE1=Utopia
TTITLE2=Filho prodigo
TTITLE3=Hino do Bom Jesus
TTITLE4=Caminhando com cristo
TTITLE5=Um certo galileu
TTITLE6=Pai
TTITLE7=Corpo e alma
TTITLE8=Meu Idolo
TTITLE9=Unico caminho
TTITLE10=Eu Navagarei
EXTD=
EXTT0=
EXTT1=
EXTT2=
EXTT3=
EXTT4=
EXTT5=
EXTT6=
EXTT7=
EXTT8=
EXTT9=
EXTT10=
PLAYORDER=
